<mxfile host="app.diagrams.net" modified="2024-01-06T13:58:20.270Z" agent="Mozilla/5.0 (Windows NT 10.0; Win64; x64) AppleWebKit/537.36 (KHTML, like Gecko) Chrome/120.0.0.0 Safari/537.36" etag="NcDLuJ-0sSFgUG_LQ3Mn" version="22.1.17" type="device">
  <diagram id="C5RBs43oDa-KdzZeNtuy" name="Page-1">
    <mxGraphModel dx="1050" dy="1726" grid="1" gridSize="10" guides="1" tooltips="1" connect="1" arrows="1" fold="1" page="1" pageScale="1" pageWidth="827" pageHeight="1169" math="0" shadow="0">
      <root>
        <mxCell id="WIyWlLk6GJQsqaUBKTNV-0" />
        <mxCell id="WIyWlLk6GJQsqaUBKTNV-1" parent="WIyWlLk6GJQsqaUBKTNV-0" />
        <mxCell id="zkfFHV4jXpPFQw0GAbJ--0" value="" style="swimlane;fontStyle=2;align=center;verticalAlign=top;childLayout=stackLayout;horizontal=1;startSize=0;horizontalStack=0;resizeParent=1;resizeLast=0;collapsible=1;marginBottom=0;rounded=0;shadow=0;strokeWidth=1;" parent="WIyWlLk6GJQsqaUBKTNV-1" vertex="1">
          <mxGeometry x="50" y="-20" width="230" height="290" as="geometry">
            <mxRectangle x="230" y="140" width="160" height="26" as="alternateBounds" />
          </mxGeometry>
        </mxCell>
        <mxCell id="6EcnxC4ZWwijCz3XJHJR-22" value="" style="html=1;whiteSpace=wrap;" vertex="1" parent="zkfFHV4jXpPFQw0GAbJ--0">
          <mxGeometry width="230" as="geometry" />
        </mxCell>
        <mxCell id="6EcnxC4ZWwijCz3XJHJR-21" value="«interface»&lt;br&gt;&lt;b&gt;FileSystem&lt;/b&gt;" style="html=1;whiteSpace=wrap;" vertex="1" parent="zkfFHV4jXpPFQw0GAbJ--0">
          <mxGeometry width="230" height="40" as="geometry" />
        </mxCell>
        <mxCell id="zkfFHV4jXpPFQw0GAbJ--4" value="" style="line;html=1;strokeWidth=1;align=left;verticalAlign=middle;spacingTop=-1;spacingLeft=3;spacingRight=3;rotatable=0;labelPosition=right;points=[];portConstraint=eastwest;" parent="zkfFHV4jXpPFQw0GAbJ--0" vertex="1">
          <mxGeometry y="40" width="230" as="geometry" />
        </mxCell>
        <mxCell id="6EcnxC4ZWwijCz3XJHJR-23" value="+setters()&#xa;+getters()&#xa;+getDetails()&#xa;+listings() : void&#xa;+createFolder(name:String):void&#xa;+createFile(name:String,size:int): void&#xa;+delete(name:String): int&#xa;+recursiveDelete(name:String) : int&#xa;+deleteAll():boolean&#xa;+getDirectedFolder(name:String):Folder&#xa;" style="text;align=left;verticalAlign=top;spacingLeft=4;spacingRight=4;overflow=hidden;rotatable=0;points=[[0,0.5],[1,0.5]];portConstraint=eastwest;" vertex="1" parent="zkfFHV4jXpPFQw0GAbJ--0">
          <mxGeometry y="40" width="230" height="84" as="geometry" />
        </mxCell>
        <mxCell id="zkfFHV4jXpPFQw0GAbJ--5" value="+setters()&#xa;+getters()&#xa;+getDetails()&#xa;+listings() : void&#xa;+createFolder(name:String):void&#xa;+createFile(name:String,size:int): void&#xa;+delete(name:String): int&#xa;+recursiveDelete(name:String) : int&#xa;+deleteAll():boolean&#xa;+getDirectedFolder(name:String):Folder&#xa;" style="text;align=left;verticalAlign=top;spacingLeft=4;spacingRight=4;overflow=hidden;rotatable=0;points=[[0,0.5],[1,0.5]];portConstraint=eastwest;" parent="zkfFHV4jXpPFQw0GAbJ--0" vertex="1">
          <mxGeometry y="124" width="230" height="166" as="geometry" />
        </mxCell>
        <mxCell id="zkfFHV4jXpPFQw0GAbJ--6" value="File" style="swimlane;fontStyle=0;align=center;verticalAlign=top;childLayout=stackLayout;horizontal=1;startSize=26;horizontalStack=0;resizeParent=1;resizeLast=0;collapsible=1;marginBottom=0;rounded=0;shadow=0;strokeWidth=1;" parent="WIyWlLk6GJQsqaUBKTNV-1" vertex="1">
          <mxGeometry x="20" y="380" width="160" height="230" as="geometry">
            <mxRectangle x="130" y="380" width="160" height="26" as="alternateBounds" />
          </mxGeometry>
        </mxCell>
        <mxCell id="6EcnxC4ZWwijCz3XJHJR-27" value="-name : String&lt;br&gt;-size :int&lt;br&gt;-type : String&lt;br&gt;-directory :String&lt;br&gt;-creation_time: Date" style="text;strokeColor=none;fillColor=none;align=left;verticalAlign=top;spacingLeft=4;spacingRight=4;overflow=hidden;rotatable=0;points=[[0,0.5],[1,0.5]];portConstraint=eastwest;whiteSpace=wrap;html=1;" vertex="1" parent="zkfFHV4jXpPFQw0GAbJ--6">
          <mxGeometry y="26" width="160" height="84" as="geometry" />
        </mxCell>
        <mxCell id="zkfFHV4jXpPFQw0GAbJ--9" value="" style="line;html=1;strokeWidth=1;align=left;verticalAlign=middle;spacingTop=-1;spacingLeft=3;spacingRight=3;rotatable=0;labelPosition=right;points=[];portConstraint=eastwest;" parent="zkfFHV4jXpPFQw0GAbJ--6" vertex="1">
          <mxGeometry y="110" width="160" height="44" as="geometry" />
        </mxCell>
        <mxCell id="zkfFHV4jXpPFQw0GAbJ--11" value="+overrided functions&#xa;" style="text;align=left;verticalAlign=top;spacingLeft=4;spacingRight=4;overflow=hidden;rotatable=0;points=[[0,0.5],[1,0.5]];portConstraint=eastwest;" parent="zkfFHV4jXpPFQw0GAbJ--6" vertex="1">
          <mxGeometry y="154" width="160" height="76" as="geometry" />
        </mxCell>
        <mxCell id="6EcnxC4ZWwijCz3XJHJR-24" value="" style="endArrow=block;dashed=1;endFill=0;endSize=12;html=1;rounded=0;exitX=0.5;exitY=0;exitDx=0;exitDy=0;" edge="1" parent="WIyWlLk6GJQsqaUBKTNV-1" source="zkfFHV4jXpPFQw0GAbJ--6">
          <mxGeometry width="160" relative="1" as="geometry">
            <mxPoint x="380" y="250" as="sourcePoint" />
            <mxPoint x="155" y="270" as="targetPoint" />
            <Array as="points">
              <mxPoint x="100" y="330" />
              <mxPoint x="155" y="330" />
            </Array>
          </mxGeometry>
        </mxCell>
        <mxCell id="6EcnxC4ZWwijCz3XJHJR-25" value="" style="endArrow=block;dashed=1;endFill=0;endSize=12;html=1;rounded=0;exitX=0.372;exitY=0.01;exitDx=0;exitDy=0;exitPerimeter=0;" edge="1" parent="WIyWlLk6GJQsqaUBKTNV-1">
          <mxGeometry width="160" relative="1" as="geometry">
            <mxPoint x="259.52" y="381.96000000000004" as="sourcePoint" />
            <mxPoint x="155" y="270" as="targetPoint" />
            <Array as="points">
              <mxPoint x="260" y="330" />
              <mxPoint x="155" y="330" />
            </Array>
          </mxGeometry>
        </mxCell>
        <mxCell id="6EcnxC4ZWwijCz3XJHJR-29" value="Folder" style="swimlane;fontStyle=0;align=center;verticalAlign=top;childLayout=stackLayout;horizontal=1;startSize=26;horizontalStack=0;resizeParent=1;resizeLast=0;collapsible=1;marginBottom=0;rounded=0;shadow=0;strokeWidth=1;" vertex="1" parent="WIyWlLk6GJQsqaUBKTNV-1">
          <mxGeometry x="230" y="370" width="160" height="260" as="geometry">
            <mxRectangle x="130" y="380" width="160" height="26" as="alternateBounds" />
          </mxGeometry>
        </mxCell>
        <mxCell id="6EcnxC4ZWwijCz3XJHJR-30" value="-name : String&lt;br&gt;-size :int&lt;br&gt;-type : String&lt;br&gt;-directory :String&lt;br&gt;-creation_time: Date&lt;br&gt;-subFiles :List&amp;lt;File&amp;gt;&lt;br&gt;-subFolder:List&amp;lt;Folder&amp;gt;" style="text;strokeColor=none;fillColor=none;align=left;verticalAlign=top;spacingLeft=4;spacingRight=4;overflow=hidden;rotatable=0;points=[[0,0.5],[1,0.5]];portConstraint=eastwest;whiteSpace=wrap;html=1;" vertex="1" parent="6EcnxC4ZWwijCz3XJHJR-29">
          <mxGeometry y="26" width="160" height="114" as="geometry" />
        </mxCell>
        <mxCell id="6EcnxC4ZWwijCz3XJHJR-31" value="" style="line;html=1;strokeWidth=1;align=left;verticalAlign=middle;spacingTop=-1;spacingLeft=3;spacingRight=3;rotatable=0;labelPosition=right;points=[];portConstraint=eastwest;" vertex="1" parent="6EcnxC4ZWwijCz3XJHJR-29">
          <mxGeometry y="140" width="160" height="44" as="geometry" />
        </mxCell>
        <mxCell id="6EcnxC4ZWwijCz3XJHJR-32" value="+overrided functions&#xa;" style="text;align=left;verticalAlign=top;spacingLeft=4;spacingRight=4;overflow=hidden;rotatable=0;points=[[0,0.5],[1,0.5]];portConstraint=eastwest;" vertex="1" parent="6EcnxC4ZWwijCz3XJHJR-29">
          <mxGeometry y="184" width="160" height="76" as="geometry" />
        </mxCell>
        <mxCell id="6EcnxC4ZWwijCz3XJHJR-47" value="Use" style="endArrow=open;endSize=12;dashed=1;html=1;rounded=0;exitX=1.025;exitY=0.863;exitDx=0;exitDy=0;exitPerimeter=0;entryX=0.455;entryY=1.047;entryDx=0;entryDy=0;entryPerimeter=0;" edge="1" parent="6EcnxC4ZWwijCz3XJHJR-29" source="6EcnxC4ZWwijCz3XJHJR-30" target="6EcnxC4ZWwijCz3XJHJR-32">
          <mxGeometry width="160" relative="1" as="geometry">
            <mxPoint x="200" y="124.5" as="sourcePoint" />
            <mxPoint x="60" y="310" as="targetPoint" />
            <Array as="points">
              <mxPoint x="210" y="124" />
              <mxPoint x="210" y="310" />
              <mxPoint x="73" y="310" />
            </Array>
          </mxGeometry>
        </mxCell>
        <mxCell id="6EcnxC4ZWwijCz3XJHJR-33" value="Drive" style="swimlane;fontStyle=0;align=center;verticalAlign=top;childLayout=stackLayout;horizontal=1;startSize=26;horizontalStack=0;resizeParent=1;resizeLast=0;collapsible=1;marginBottom=0;rounded=0;shadow=0;strokeWidth=1;" vertex="1" parent="WIyWlLk6GJQsqaUBKTNV-1">
          <mxGeometry x="420" y="120" width="160" height="270" as="geometry">
            <mxRectangle x="130" y="380" width="160" height="26" as="alternateBounds" />
          </mxGeometry>
        </mxCell>
        <mxCell id="6EcnxC4ZWwijCz3XJHJR-34" value="-name : String&lt;br&gt;-size :int&lt;br&gt;-type : String&lt;br&gt;-directory :String&lt;br&gt;-creation_time: Date&lt;br&gt;-subFiles :List&amp;lt;File&amp;gt;&lt;br&gt;-subFolder:List&amp;lt;Folder&amp;gt;&lt;br&gt;-subDrive:List&amp;lt;Drive&amp;gt;" style="text;strokeColor=none;fillColor=none;align=left;verticalAlign=top;spacingLeft=4;spacingRight=4;overflow=hidden;rotatable=0;points=[[0,0.5],[1,0.5]];portConstraint=eastwest;whiteSpace=wrap;html=1;" vertex="1" parent="6EcnxC4ZWwijCz3XJHJR-33">
          <mxGeometry y="26" width="160" height="124" as="geometry" />
        </mxCell>
        <mxCell id="6EcnxC4ZWwijCz3XJHJR-35" value="" style="line;html=1;strokeWidth=1;align=left;verticalAlign=middle;spacingTop=-1;spacingLeft=3;spacingRight=3;rotatable=0;labelPosition=right;points=[];portConstraint=eastwest;" vertex="1" parent="6EcnxC4ZWwijCz3XJHJR-33">
          <mxGeometry y="150" width="160" height="44" as="geometry" />
        </mxCell>
        <mxCell id="6EcnxC4ZWwijCz3XJHJR-36" value="+overrided functions&#xa;" style="text;align=left;verticalAlign=top;spacingLeft=4;spacingRight=4;overflow=hidden;rotatable=0;points=[[0,0.5],[1,0.5]];portConstraint=eastwest;" vertex="1" parent="6EcnxC4ZWwijCz3XJHJR-33">
          <mxGeometry y="194" width="160" height="76" as="geometry" />
        </mxCell>
        <mxCell id="6EcnxC4ZWwijCz3XJHJR-48" value="Use" style="endArrow=open;endSize=12;dashed=1;html=1;rounded=0;exitX=0.463;exitY=1.047;exitDx=0;exitDy=0;exitPerimeter=0;entryX=1;entryY=0.5;entryDx=0;entryDy=0;" edge="1" parent="6EcnxC4ZWwijCz3XJHJR-33" source="6EcnxC4ZWwijCz3XJHJR-36" target="6EcnxC4ZWwijCz3XJHJR-34">
          <mxGeometry width="160" relative="1" as="geometry">
            <mxPoint x="70" y="300" as="sourcePoint" />
            <mxPoint x="220" y="80" as="targetPoint" />
            <Array as="points">
              <mxPoint x="74" y="350" />
              <mxPoint x="220" y="350" />
              <mxPoint x="220" y="90" />
            </Array>
          </mxGeometry>
        </mxCell>
        <mxCell id="6EcnxC4ZWwijCz3XJHJR-38" value="" style="endArrow=block;dashed=1;endFill=0;endSize=12;html=1;rounded=0;entryX=1;entryY=0.5;entryDx=0;entryDy=0;exitX=0;exitY=0.331;exitDx=0;exitDy=0;exitPerimeter=0;" edge="1" parent="WIyWlLk6GJQsqaUBKTNV-1" source="6EcnxC4ZWwijCz3XJHJR-34" target="zkfFHV4jXpPFQw0GAbJ--5">
          <mxGeometry width="160" relative="1" as="geometry">
            <mxPoint x="420" y="410" as="sourcePoint" />
            <mxPoint x="580" y="410" as="targetPoint" />
          </mxGeometry>
        </mxCell>
        <mxCell id="6EcnxC4ZWwijCz3XJHJR-39" value="1" style="endArrow=open;html=1;endSize=12;startArrow=diamondThin;startSize=14;startFill=0;edgeStyle=orthogonalEdgeStyle;align=left;verticalAlign=bottom;rounded=0;entryX=0.995;entryY=0.708;entryDx=0;entryDy=0;entryPerimeter=0;exitX=0.605;exitY=0.002;exitDx=0;exitDy=0;exitPerimeter=0;" edge="1" parent="WIyWlLk6GJQsqaUBKTNV-1" source="6EcnxC4ZWwijCz3XJHJR-29" target="zkfFHV4jXpPFQw0GAbJ--5">
          <mxGeometry x="-0.7827" y="27" relative="1" as="geometry">
            <mxPoint x="330" y="340" as="sourcePoint" />
            <mxPoint x="320" y="220" as="targetPoint" />
            <mxPoint as="offset" />
          </mxGeometry>
        </mxCell>
        <mxCell id="6EcnxC4ZWwijCz3XJHJR-40" value="1" style="endArrow=open;html=1;endSize=12;startArrow=diamondThin;startSize=14;startFill=0;edgeStyle=orthogonalEdgeStyle;align=left;verticalAlign=bottom;rounded=0;entryX=0.991;entryY=0.076;entryDx=0;entryDy=0;entryPerimeter=0;exitX=0.558;exitY=-0.012;exitDx=0;exitDy=0;exitPerimeter=0;" edge="1" parent="WIyWlLk6GJQsqaUBKTNV-1" source="6EcnxC4ZWwijCz3XJHJR-33" target="6EcnxC4ZWwijCz3XJHJR-23">
          <mxGeometry x="-0.8959" y="29" relative="1" as="geometry">
            <mxPoint x="500" y="26" as="sourcePoint" />
            <mxPoint x="580" y="40" as="targetPoint" />
            <mxPoint as="offset" />
          </mxGeometry>
        </mxCell>
      </root>
    </mxGraphModel>
  </diagram>
</mxfile>
